<?xml version="1.0" encoding="UTF-8"?>
<svg width="18px" height="14px" viewBox="0 0 18 14" version="1.1" xmlns="http://www.w3.org/2000/svg" xmlns:xlink="http://www.w3.org/1999/xlink">
    <!-- Generator: Sketch 42 (36781) - http://www.bohemiancoding.com/sketch -->
    <title>noun_711840_cc</title>
    <desc>Created with Sketch.</desc>
    <defs></defs>
    <g id="Page-1" stroke="none" stroke-width="1" fill="none" fill-rule="evenodd">
        <g id="noun_711840_cc" fill-rule="nonzero" fill="#9D81FE">
            <g id="Group" transform="translate(0.000000, 0.216946)">
                <path d="M17.7714861,6.22255102 L13.2714861,0.439979592 C12.9665548,0.108585034 12.3818361,-0.0282176871 12.0410173,0.354945578 C11.7053173,0.732326531 11.7153017,1.46423129 12.0497361,1.84310884 L15.2137986,5.90368707 L0.843746062,5.90368707 C0.377771062,5.90368707 -3.9375e-06,6.36054422 -3.9375e-06,6.92411565 C-3.9375e-06,7.48768707 0.377771062,7.94455782 0.843746062,7.94455782 L15.2137986,7.94455782 L12.0497361,12.0051361 C11.7618204,12.3539456 11.7086079,13.1115986 12.0410173,13.4932993 C12.3733423,13.874966 12.9790704,13.7530272 13.2714861,13.4082313 L17.7714861,7.62568027 C17.9254704,7.42778912 18.0005079,7.19561224 18.0000017,6.92411565 C17.9921267,6.68091837 17.9093548,6.39982993 17.7714861,6.22255102 Z" id="Shape"></path>
            </g>
        </g>
    </g>
</svg>