<?xml version="1.0" encoding="UTF-8"?>
<svg width="41px" height="41px" viewBox="0 0 41 41" version="1.1" xmlns="http://www.w3.org/2000/svg" xmlns:xlink="http://www.w3.org/1999/xlink">
    <!-- Generator: sketchtool 41.2 (35397) - http://www.bohemiancoding.com/sketch -->
    <title>DDB7BCEE-D82A-4027-B8EA-EAE66C5902F5</title>
    <desc>Created with sketchtool.</desc>
    <defs></defs>
    <g id="Page-1" stroke="none" stroke-width="1" fill="none" fill-rule="evenodd">
        <g id="Artboard-3-Copy-2" transform="translate(-870.000000, -811.000000)">
            <g id="Group-4" transform="translate(672.000000, 811.000000)">
                <g id="1482739442_twitter_online_social_media" transform="translate(198.263189, 0.214793)">
                    <g id="Flat_copy">
                        <path d="M20,0 C8.95375,0 0,8.95375 0,20 C0,31.045 8.95375,40 20,40 C31.04625,40 40,31.045 40,20 C40,8.95375 31.04625,0 20,0 Z" id="Shape" fill="#535353"></path>
                        <path d="M22.7825,11.1075 C20.795,11.83125 19.53875,13.69625 19.68125,15.7375 L19.72875,16.525 L18.93375,16.42875 C16.04,16.05875 13.51125,14.805 11.36375,12.69875 L10.31375,11.65375 L10.045,12.425 C9.4725,14.145 9.83875,15.9625 11.03125,17.185 C11.6675,17.86 11.52375,17.95625 10.4275,17.555 C10.04625,17.42625 9.71125,17.33 9.68,17.37875 C9.56875,17.49125 9.95,18.95375 10.2525,19.53375 C10.66625,20.33875 11.50875,21.125 12.43125,21.5925 L13.21125,21.9625 L12.2875,21.97625 C11.3975,21.97625 11.365,21.9925 11.46125,22.33125 C11.77875,23.37625 13.035,24.48625 14.435,24.96875 L15.42125,25.30625 L14.5625,25.82125 C13.29,26.5625 11.795,26.98 10.3,27.01 C9.58375,27.02625 8.995,27.09 8.995,27.13875 C8.995,27.29875 10.93625,28.19875 12.06375,28.55375 C15.45125,29.59875 19.475,29.1475 22.49625,27.36375 C24.64375,26.09375 26.79,23.56875 27.7925,21.12375 C28.33375,19.8225 28.87375,17.4425 28.87375,16.30125 C28.87375,15.56125 28.92125,15.465 29.81125,14.58125 C30.33625,14.06625 30.82875,13.50375 30.925,13.34375 C31.085,13.0375 31.0675,13.0375 30.2575,13.31125 C28.90625,13.79375 28.715,13.73 29.38375,13.00625 C29.87625,12.49125 30.465,11.55875 30.465,11.28625 C30.465,11.23875 30.22625,11.31875 29.95625,11.4625 C29.67,11.62375 29.03375,11.865 28.55625,12.00875 L27.6975,12.2825 L26.91875,11.75 C26.48875,11.46125 25.88625,11.13875 25.5675,11.0425 C24.755,10.8175 23.515,10.85 22.7825,11.1075 Z" id="Shape" fill="#FFFFFF"></path>
                    </g>
                </g>
            </g>
        </g>
    </g>
</svg>