<?xml version="1.0" encoding="UTF-8"?>
<svg width="41px" height="41px" viewBox="0 0 41 41" version="1.1" xmlns="http://www.w3.org/2000/svg" xmlns:xlink="http://www.w3.org/1999/xlink">
    <!-- Generator: sketchtool 41.2 (35397) - http://www.bohemiancoding.com/sketch -->
    <title>6C707E39-884A-47AA-ACF2-487580EAA7A2</title>
    <desc>Created with sketchtool.</desc>
    <defs></defs>
    <g id="Page-1" stroke="none" stroke-width="1" fill="none" fill-rule="evenodd">
        <g id="Artboard-3-Copy-2" transform="translate(-771.000000, -811.000000)">
            <g id="Group-4" transform="translate(672.000000, 811.000000)">
                <g id="1482739451_linked_in_online_social_media" transform="translate(99.596522, 0.214793)">
                    <g id="Flat_copy">
                        <path d="M20,0 C8.95375,0 0,8.95375 0,20 C0,31.045 8.95375,40 20,40 C31.04625,40 40,31.045 40,20 C40,8.95375 31.04625,0 20,0 Z" id="Shape" fill="#535353"></path>
                        <path d="M30.3675,28.6775 L30.3675,21.00625 C30.3675,16.89625 28.17375,14.98375 25.2475,14.98375 C22.88625,14.98375 21.82875,16.2825 21.24,17.19375 L21.24,15.2975 L16.7925,15.2975 C16.85125,16.55375 16.7925,28.6775 16.7925,28.6775 L21.24,28.6775 L21.24,21.205 C21.24,20.80625 21.26875,20.40625 21.38625,20.12125 C21.7075,19.3225 22.43875,18.495 23.6675,18.495 C25.2775,18.495 25.92125,19.72125 25.92125,21.52 L25.92125,28.67875 L30.3675,28.6775 L30.3675,28.6775 Z M12.10625,13.47125 C13.65625,13.47125 14.6225,12.4425 14.6225,11.15875 C14.59375,9.84625 13.65625,8.8475 12.135,8.8475 C10.61375,8.8475 9.62,9.84625 9.62,11.15875 C9.62,12.44375 10.585,13.47125 12.07875,13.47125 L12.10625,13.47125 Z M14.33,28.6775 L14.33,15.2975 L9.88375,15.2975 L9.88375,28.6775 L14.33,28.6775 Z" id="Shape" fill="#FFFFFF"></path>
                    </g>
                </g>
            </g>
        </g>
    </g>
</svg>