<?xml version="1.0" encoding="UTF-8"?>
<svg width="41px" height="41px" viewBox="0 0 41 41" version="1.1" xmlns="http://www.w3.org/2000/svg" xmlns:xlink="http://www.w3.org/1999/xlink">
    <!-- Generator: sketchtool 41.2 (35397) - http://www.bohemiancoding.com/sketch -->
    <title>DA4B590D-61AF-49E1-A037-42A15172AC29</title>
    <desc>Created with sketchtool.</desc>
    <defs></defs>
    <g id="Page-1" stroke="none" stroke-width="1" fill="none" fill-rule="evenodd">
        <g id="Artboard-3-Copy-2" transform="translate(-968.000000, -811.000000)">
            <g id="Group-4" transform="translate(672.000000, 811.000000)">
                <g id="1482739470_mail_email_envelope_send_message" transform="translate(296.929855, 0.214793)">
                    <g id="Style_2">
                        <path d="M20,0 C8.95375,0 0,8.95375 0,20 C0,31.045 8.95375,40 20,40 C31.04625,40 40,31.045 40,20 C40,8.95375 31.04625,0 20,0 Z" id="Shape" fill="#535353"></path>
                        <g id="Group" transform="translate(7.500000, 11.250000)" fill="#FFFFFF">
                            <polygon id="Shape" points="0.6475 16.01875 7.13375 7.86375 0.6475 3.89875"></polygon>
                            <polygon id="Shape" points="16.875 8.4325 12.48625 11.135 8.09 8.4475 1.3875 16.875 23.58375 16.875"></polygon>
                            <polygon id="Shape" points="12.485 9.83 24.3525 2.52125 24.3525 0.625 0.6475 0.625 0.6475 2.595"></polygon>
                            <polygon id="Shape" points="17.82875 7.845 24.3525 16.05375 24.3525 3.8275"></polygon>
                        </g>
                    </g>
                </g>
            </g>
        </g>
    </g>
</svg>