<?xml version="1.0" encoding="UTF-8"?>
<svg width="41px" height="40px" viewBox="0 0 41 40" version="1.1" xmlns="http://www.w3.org/2000/svg" xmlns:xlink="http://www.w3.org/1999/xlink">
    <!-- Generator: sketchtool 41.2 (35397) - http://www.bohemiancoding.com/sketch -->
    <title>F1AA837B-1F5E-47A9-831B-907EE7C8524A</title>
    <desc>Created with sketchtool.</desc>
    <defs></defs>
    <g id="Page-1" stroke="none" stroke-width="1" fill="none" fill-rule="evenodd">
        <g id="Artboard-3-Copy-2" transform="translate(-672.000000, -811.000000)" fill="#535353">
            <g id="Group-4" transform="translate(672.000000, 811.000000)">
                <g id="1482742403_github" transform="translate(0.929855, 0.214793)">
                    <g id="Layer_1">
                        <path d="M20.00375,0 C8.9625,0 0.01,8.9525 0.01,19.99625 C0.01,28.83 5.7375,36.325 13.685,38.97 C14.685,39.1525 15,38.56 15,38.03 C15,37.555 15.01,36.2275 15,34.55875 C9.43875,35.7675 8.28625,31.925 8.28625,31.925 C7.3775,29.615 6.0675,29 6.0675,29 C4.2525,27.76 6.20375,27.78375 6.20375,27.78375 C8.21,27.925 9.2675,29.845 9.2675,29.845 C11.05125,32.89875 13.94625,32.01625 15.085,31.50625 C15.2675,30.21375 15.785,29.3325 16.35625,28.8325 C11.91625,28.3275 7.24875,26.6125 7.24875,18.95 C7.24875,16.76625 8.0275,14.9825 9.30625,13.585 C9.1,13.08 8.4125,11.04625 9.5025,8.2925 C9.5025,8.2925 11.18125,7.755 15,10.34375 C16.595,9.9 18.30625,9.67875 20.00625,9.67125 C21.705,9.67875 23.415,9.9 25.0125,10.34375 C28.83125,7.75625 30.5075,8.2925 30.5075,8.2925 C31.5975,11.04625 30.91125,13.08 30.70625,13.585 C31.985,14.9825 32.76125,16.76625 32.76125,18.95 C32.76125,26.6325 28.08625,28.3225 23.63125,28.81625 C24.34875,29.435 25,30.635 25,32.5 L25,38.035 C25,38.57 25.3225,39.16125 26.3375,38.9675 C34.2775,36.31875 40,28.8275 40,19.99625 C40,8.9525 31.0475,0 20.00375,0 Z" id="Shape"></path>
                    </g>
                </g>
            </g>
        </g>
    </g>
</svg>