<?xml version="1.0" encoding="UTF-8"?>
<svg width="33px" height="33px" viewBox="0 0 33 33" version="1.1" xmlns="http://www.w3.org/2000/svg" xmlns:xlink="http://www.w3.org/1999/xlink">
    <!-- Generator: sketchtool 41.2 (35397) - http://www.bohemiancoding.com/sketch -->
    <title>F8E18E4F-709E-4DA7-A8FF-0AA51C461E2E</title>
    <desc>Created with sketchtool.</desc>
    <defs></defs>
    <g id="Page-1" stroke="none" stroke-width="1" fill="none" fill-rule="evenodd" opacity="0.600000024">
        <g id="Artboard-3-Copy-7" transform="translate(-1482.000000, -1774.000000)">
            <g id="Group-4" transform="translate(1245.000000, 1774.000000)">
                <g id="1482739470_mail_email_envelope_send_message" transform="translate(237.896323, 0.172882)">
                    <g id="Style_2">
                        <path d="M16.0237389,0 C7.1736276,0 0,7.20667683 0,16.097561 C0,24.987439 7.1736276,32.195122 16.0237389,32.195122 C24.8738501,32.195122 32.0474777,24.987439 32.0474777,16.097561 C32.0474777,7.20667683 24.8738501,0 16.0237389,0 Z" id="Shape" fill="#535353"></path>
                        <g id="Group" transform="translate(6.008902, 9.054878)" fill="#FFFFFF">
                            <polygon id="Shape" points="0.518768546 12.8931402 5.71546736 6.32935976 0.518768546 3.13801829"></polygon>
                            <polygon id="Shape" points="13.5200297 6.78713415 10.0038205 8.96231707 6.48160237 6.79920732 1.11164688 13.5823171 18.8949926 13.5823171"></polygon>
                            <polygon id="Shape" points="10.002819 7.91195122 19.510905 2.02929878 19.510905 0.50304878 0.518768546 0.50304878 0.518768546 2.08865854"></polygon>
                            <polygon id="Shape" points="14.2841617 6.31426829 19.510905 12.921311 19.510905 3.08067073"></polygon>
                        </g>
                    </g>
                </g>
            </g>
        </g>
    </g>
</svg>