<?xml version="1.0" encoding="UTF-8"?>
<svg width="33px" height="32px" viewBox="0 0 33 32" version="1.1" xmlns="http://www.w3.org/2000/svg" xmlns:xlink="http://www.w3.org/1999/xlink">
    <!-- Generator: sketchtool 41.2 (35397) - http://www.bohemiancoding.com/sketch -->
    <title>E5E3D128-C0DD-4CA3-835C-4BD186792C45</title>
    <desc>Created with sketchtool.</desc>
    <defs></defs>
    <g id="Page-1" stroke="none" stroke-width="1" fill="none" fill-rule="evenodd" opacity="0.600000024">
        <g id="Artboard-3-Copy-7" transform="translate(-1245.000000, -1774.000000)" fill="#535353">
            <g id="Group-4" transform="translate(1245.000000, 1774.000000)">
                <g id="1482742403_github" transform="translate(0.744988, 0.172882)">
                    <g id="Layer_1">
                        <path d="M16.0267433,0 C7.18063798,0 0.00801186943,7.20567073 0.00801186943,16.0945427 C0.00801186943,23.2046341 4.59681009,29.2371951 10.9642433,31.3660976 C11.7654303,31.5129878 12.0178042,31.0360976 12.0178042,30.6095122 C12.0178042,30.2271951 12.025816,29.1587195 12.0178042,27.8155793 C7.56220326,28.7884756 6.63883531,25.6957317 6.63883531,25.6957317 C5.91075668,23.8364634 4.86120178,23.3414634 4.86120178,23.3414634 C3.40704748,22.3434146 4.9703635,22.3625305 4.9703635,22.3625305 C6.57774481,22.4762195 7.425,24.0215854 7.425,24.0215854 C8.85411721,26.4794817 11.1735534,25.7691768 12.085905,25.358689 C12.2321217,24.3183841 12.6467359,23.6090854 13.1044139,23.2066463 C9.54714392,22.8001829 5.80760386,21.4198171 5.80760386,15.252439 C5.80760386,13.4947866 6.43152819,12.0590854 7.45604599,10.9342683 C7.29080119,10.5278049 6.73998516,8.89088415 7.61327893,6.67445122 C7.61327893,6.67445122 8.95827151,6.24182927 12.0178042,8.32545732 C13.2956973,7.96829268 14.6667285,7.79021341 16.0287463,7.78417683 C17.3897626,7.79021341 18.7597923,7.96829268 20.0396884,8.32545732 C23.0992211,6.24283537 24.4422107,6.67445122 24.4422107,6.67445122 C25.3155045,8.89088415 24.7656899,10.5278049 24.6014466,10.9342683 C25.6259644,12.0590854 26.2478858,13.4947866 26.2478858,15.252439 C26.2478858,21.4359146 22.5023368,22.7961585 18.933049,23.1935671 C19.5079006,23.6915854 20.0296736,24.657439 20.0296736,26.1585366 L20.0296736,30.6135366 C20.0296736,31.0441463 20.2880564,31.5200305 21.1012611,31.3640854 C27.4626855,29.2321646 32.0474777,23.202622 32.0474777,16.0945427 C32.0474777,7.20567073 24.8748516,0 16.0267433,0 Z" id="Shape"></path>
                    </g>
                </g>
            </g>
        </g>
    </g>
</svg>