<?xml version="1.0" encoding="UTF-8"?>
<svg width="33px" height="33px" viewBox="0 0 33 33" version="1.1" xmlns="http://www.w3.org/2000/svg" xmlns:xlink="http://www.w3.org/1999/xlink">
    <!-- Generator: sketchtool 41.2 (35397) - http://www.bohemiancoding.com/sketch -->
    <title>059B4AA3-AF96-4DB6-925F-6CC58748FB62</title>
    <desc>Created with sketchtool.</desc>
    <defs></defs>
    <g id="Page-1" stroke="none" stroke-width="1" fill="none" fill-rule="evenodd" opacity="0.600000024">
        <g id="Artboard-3-Copy-7" transform="translate(-1324.000000, -1774.000000)">
            <g id="Group-4" transform="translate(1245.000000, 1774.000000)">
                <g id="1482739451_linked_in_online_social_media" transform="translate(79.795433, 0.172882)">
                    <g id="Flat_copy">
                        <path d="M16.0237389,0 C7.1736276,0 0,7.20667683 0,16.097561 C0,24.987439 7.1736276,32.195122 16.0237389,32.195122 C24.8738501,32.195122 32.0474777,24.987439 32.0474777,16.097561 C32.0474777,7.20667683 24.8738501,0 16.0237389,0 Z" id="Shape" fill="#535353"></path>
                        <path d="M24.3300445,23.0818902 L24.3300445,16.9074695 C24.3300445,13.5994207 22.5724407,12.0600915 20.2279674,12.0600915 C18.3361647,12.0600915 17.4889095,13.1054268 17.0172107,13.838872 L17.0172107,12.312622 L13.4539318,12.312622 C13.5010015,13.32375 13.4539318,23.0818902 13.4539318,23.0818902 L17.0172107,23.0818902 L17.0172107,17.067439 C17.0172107,16.7464939 17.0402448,16.4245427 17.1343843,16.1951524 C17.3917656,15.5522561 17.9776335,14.8862195 18.962092,14.8862195 C20.252003,14.8862195 20.7677671,15.8732012 20.7677671,17.3209756 L20.7677671,23.0828963 L24.3300445,23.0818902 L24.3300445,23.0818902 Z M9.69936944,10.8427134 C10.9412092,10.8427134 11.7153561,10.0146951 11.7153561,8.98143293 C11.692322,7.92503049 10.9412092,7.12115854 9.72240356,7.12115854 C8.50359792,7.12115854 7.7074184,7.92503049 7.7074184,8.98143293 C7.7074184,10.0157012 8.4805638,10.8427134 9.6773368,10.8427134 L9.69936944,10.8427134 Z M11.4810089,23.0818902 L11.4810089,12.312622 L7.91873145,12.312622 L7.91873145,23.0818902 L11.4810089,23.0818902 Z" id="Shape" fill="#FFFFFF"></path>
                    </g>
                </g>
            </g>
        </g>
    </g>
</svg>