<?xml version="1.0" encoding="UTF-8"?>
<svg width="64px" height="55px" viewBox="0 0 64 55" version="1.1" xmlns="http://www.w3.org/2000/svg" xmlns:xlink="http://www.w3.org/1999/xlink">
    <!-- Generator: sketchtool 41.2 (35397) - http://www.bohemiancoding.com/sketch -->
    <title>65FFF51B-E5D7-471F-94E8-50088575C439</title>
    <desc>Created with sketchtool.</desc>
    <defs></defs>
    <g id="Page-1" stroke="none" stroke-width="1" fill="none" fill-rule="evenodd">
        <g id="Artboard-3-Copy-7" transform="translate(-57.000000, -79.000000)" fill="#9D81FE">
            <g id="Group-2" transform="translate(57.000000, 79.000000)">
                <path d="M30.0875594,0.837213468 C27.4354622,-0.279910022 24.254597,0.241079742 22.093191,2.40248573 L2.20302657,22.2926502 C-0.64776036,25.1434371 -0.64682382,29.7597213 2.2009914,32.6075365 L22.1335438,52.5400889 C24.2914471,54.6979922 27.4695246,55.2202429 30.1219993,54.1045418 C29.2792429,53.8828411 28.4830323,53.4423361 27.8239421,52.7832458 L6.09911628,31.05842 C4.10731195,29.0666157 4.10841395,25.8361608 6.10912169,23.835453 L27.7772756,2.16729909 C28.4409306,1.50364416 29.2414483,1.06035592 30.0875594,0.837213468 Z" id="Combined-Shape"></path>
                <path d="M33.1158987,2.4327182 C35.1132288,0.435388034 38.3502129,0.434060075 40.3388656,2.42271279 L62.0636915,24.1475386 C64.0554958,26.1393429 64.0543938,29.3697978 62.053686,31.3705056 L40.3855321,53.0386595 C38.3882019,55.0359897 35.1512179,55.0373176 33.1625651,53.0486649 L11.4377393,31.3238391 C9.44593499,29.3320348 9.44703699,26.1015799 11.4477447,24.1008722 L33.1158987,2.4327182 Z M43.4209725,19.3771146 C38.9455765,15.626569 32.2732765,16.2095801 28.5179734,20.6793063 C24.7626702,25.1490324 25.3464208,31.8128793 29.8218168,35.5634249 C34.2972129,39.3139705 40.9695128,38.7309594 44.724816,34.2612332 C45.2426232,33.6449164 45.1621316,32.7260589 44.545033,32.2089077 C43.9279343,31.6917564 43.0079113,31.772146 42.490104,32.3884629 C39.7704154,35.6255553 34.9381615,36.0477872 31.6969628,33.3315441 C28.4557641,30.615301 28.0329967,25.789169 30.7526853,22.5520766 C33.4723739,19.3149842 38.3046279,18.8927523 41.5458265,21.6089954 C42.1629252,22.1261467 43.0829482,22.045757 43.6007555,21.4294402 C44.1185627,20.8131233 44.0380712,19.8942659 43.4209725,19.3771146 Z" id="Combined-Shape"></path>
            </g>
        </g>
    </g>
</svg>