<?xml version="1.0" encoding="UTF-8"?>
<svg width="34px" height="57px" viewBox="0 0 34 57" version="1.1" xmlns="http://www.w3.org/2000/svg" xmlns:xlink="http://www.w3.org/1999/xlink">
    <!-- Generator: sketchtool 41.2 (35397) - http://www.bohemiancoding.com/sketch -->
    <title>5A51B83F-ED88-43A0-97C6-718AF6D9162B</title>
    <desc>Created with sketchtool.</desc>
    <defs>
        <path d="M1578.47204,28.4847499 L1598.09615,8.8606426 C1600.12556,6.83123389 1600.12674,3.54408816 1598.10001,1.5173647 C1596.07741,-0.505234781 1592.78559,-0.507629225 1590.75674,1.52122772 L1567.52298,24.7549821 C1566.49374,25.7842266 1565.98619,27.1369813 1566.00029,28.4847499 C1565.98619,29.8325186 1566.49374,31.1852732 1567.52298,32.2145177 L1590.75674,55.4482722 C1592.78559,57.4771291 1596.07741,57.4747347 1598.10001,55.4521352 C1600.12674,53.4254117 1600.12556,50.138266 1598.09615,48.1088573 L1578.47204,28.4847499 Z" id="path-1"></path>
        <mask id="mask-2" maskContentUnits="userSpaceOnUse" maskUnits="objectBoundingBox" x="0" y="0" width="33.6191326" height="56.9694999" fill="white">
            <use xlink:href="#path-1"></use>
        </mask>
    </defs>
    <g id="Page-1" stroke="none" stroke-width="1" fill="none" fill-rule="evenodd" fill-opacity="0.65">
        <g id="Artboard-3-Copy-7" transform="translate(-1606.000000, -1082.000000)" stroke="#FFFFFF" stroke-width="4" fill="#808080">
            <g id="Group-6" transform="translate(40.000000, 1082.000000)">
                <use id="Combined-Shape-Copy" mask="url(#mask-2)" transform="translate(1582.809566, 28.484750) scale(-1, 1) translate(-1582.809566, -28.484750) " xlink:href="#path-1"></use>
            </g>
        </g>
    </g>
</svg>