<?xml version="1.0" encoding="UTF-8"?>
<svg width="33px" height="33px" viewBox="0 0 33 33" version="1.1" xmlns="http://www.w3.org/2000/svg" xmlns:xlink="http://www.w3.org/1999/xlink">
    <!-- Generator: sketchtool 41.2 (35397) - http://www.bohemiancoding.com/sketch -->
    <title>F8DAAC7D-02A1-416B-A0CB-74BDB8754AE1</title>
    <desc>Created with sketchtool.</desc>
    <defs></defs>
    <g id="Page-1" stroke="none" stroke-width="1" fill="none" fill-rule="evenodd" opacity="0.600000024">
        <g id="Artboard-3-Copy-7" transform="translate(-1403.000000, -1774.000000)">
            <g id="Group-4" transform="translate(1245.000000, 1774.000000)">
                <g id="1482739442_twitter_online_social_media" transform="translate(158.845878, 0.172882)">
                    <g id="Flat_copy">
                        <path d="M16.0237389,0 C7.1736276,0 0,7.20667683 0,16.097561 C0,24.987439 7.1736276,32.195122 16.0237389,32.195122 C24.8738501,32.195122 32.0474777,24.987439 32.0474777,16.097561 C32.0474777,7.20667683 24.8738501,0 16.0237389,0 Z" id="Shape" fill="#535353"></path>
                        <path d="M18.2530415,8.94018293 C16.6606825,9.52271341 15.6541914,11.023811 15.7683605,12.6667683 L15.8064169,13.3006098 L15.1694733,13.2231402 C12.8510386,12.9253354 10.8250371,11.9162195 9.10448813,10.2209451 L8.26324184,9.37984756 L8.04792285,10.0006098 C7.58924332,11.385 7.88267804,12.8478659 8.83809347,13.8318293 C9.34784866,14.375122 9.23267804,14.4525915 8.35437685,14.1296341 C8.04892433,14.0260061 7.78052671,13.9485366 7.75548961,13.9877744 C7.66635757,14.0783232 7.97181009,15.2554573 8.21416914,15.7222866 C8.54566024,16.3702134 9.22066024,17.0030488 9.95975519,17.3793293 L10.584681,17.6771341 L9.84458457,17.6882012 C9.13152819,17.6882012 9.10548961,17.7012805 9.18260386,17.9739329 C9.43698071,18.8150305 10.4434718,19.7084451 11.5651335,20.0967988 L12.3553042,20.3684451 L11.6672849,20.7829573 C10.6477745,21.3795732 9.45,21.7156098 8.25222552,21.7397561 C7.67837537,21.7528354 7.20667656,21.8041463 7.20667656,21.8433841 C7.20667656,21.9721646 8.76198071,22.6965549 9.66531899,22.9822866 C12.3793398,23.8233841 15.6031157,23.4601829 18.0237018,22.0244817 C19.7442507,21.0022866 21.4637982,18.9699695 22.2669881,17.0020427 C22.7006306,15.9546951 23.1332715,14.0390854 23.1332715,13.1205183 C23.1332715,12.5249085 23.1713279,12.447439 23.8843843,11.736128 C24.3050074,11.3216159 24.699592,10.868872 24.7767062,10.7400915 C24.9048961,10.4935976 24.8908754,10.4935976 24.2419139,10.7139329 C23.1593101,11.1022866 23.0060831,11.0509756 23.5418769,10.4684451 C23.9364614,10.0539329 24.4081602,9.30338415 24.4081602,9.08405488 C24.4081602,9.04582317 24.2168769,9.11021341 24.0005564,9.22591463 C23.7712166,9.35570122 23.2614614,9.54987805 22.8788947,9.66557927 L22.1908754,9.88591463 L21.566951,9.45731707 C21.2224407,9.22490854 20.7397255,8.96533537 20.4843472,8.88786585 C19.8333828,8.70676829 18.839911,8.73292683 18.2530415,8.94018293 Z" id="Shape" fill="#FFFFFF"></path>
                    </g>
                </g>
            </g>
        </g>
    </g>
</svg>